<?xml version="1.0" encoding="utf-8"?>
<!-- Generator: Adobe Illustrator 27.1.1, SVG Export Plug-In . SVG Version: 6.00 Build 0)  -->
<svg version="1.1" id="Layer_1" xmlns="http://www.w3.org/2000/svg" xmlns:xlink="http://www.w3.org/1999/xlink" x="0px" y="0px"
	 viewBox="0 0 962.66 198.95" style="enable-background:new 0 0 962.66 198.95;" xml:space="preserve">
<style type="text/css">
	.st0{fill:#4ABCA7;}
</style>
<g>
	<path class="st0" d="M198.95,96.04c-7.08,0-13.97-0.78-20.62-2.23V20.62h-73.19c-1.46-6.64-2.23-13.54-2.23-20.62h-6.87
		c0,7.07-0.78,13.97-2.23,20.62H20.62v73.19C13.97,95.26,7.08,96.04,0,96.04v6.87c7.08,0,13.97,0.78,20.62,2.23v73.19h73.19
		c1.46,6.64,2.23,13.54,2.23,20.62h6.87c0-7.07,0.78-13.97,2.23-20.62h73.19v-73.19c6.64-1.46,13.54-2.23,20.62-2.23V96.04z
		 M172.45,99.48c0,0.01,0,0.02,0,0.03c-35.48,9.47-63.48,37.47-72.94,72.94c-0.01,0-0.02,0-0.03,0s-0.02,0-0.03,0
		c-9.47-35.48-37.47-63.48-72.94-72.94c0-0.01,0-0.02,0-0.03s0-0.02,0-0.03c35.48-9.47,63.48-37.47,72.94-72.94
		c0.01,0,0.02,0,0.03,0s0.02,0,0.03,0c9.47,35.48,37.47,63.48,72.94,72.94C172.45,99.46,172.45,99.47,172.45,99.48z M106.74,26.87
		c34.45,3.42,61.92,30.9,65.34,65.34C140.69,83.05,115.9,58.26,106.74,26.87z M26.87,92.21c3.42-34.45,30.89-61.92,65.34-65.34
		C83.05,58.26,58.26,83.05,26.87,92.21z M92.21,172.08c-34.45-3.42-61.92-30.9-65.34-65.34C58.26,115.9,83.05,140.69,92.21,172.08z
		 M172.08,106.74c-3.42,34.45-30.89,61.92-65.34,65.34C115.9,140.69,140.69,115.9,172.08,106.74z M172.45,69.61
		c-8.01-19.5-23.61-35.1-43.11-43.11h43.11V69.61z M69.61,26.51c-19.5,8.01-35.1,23.61-43.11,43.11V26.51H69.61z M26.51,129.34
		c8.01,19.5,23.61,35.1,43.11,43.11H26.51V129.34z M129.34,172.45c19.5-8.01,35.1-23.61,43.11-43.11v43.11H129.34z"/>
	<g>
		<path d="M341.71,85.74c0,25.09-18.16,40.27-48.2,40.27h-28.55V161h-16.51V45.47h45.06C323.55,45.47,341.71,60.65,341.71,85.74z
			 M325.2,85.74c0-16.51-11.06-25.91-32.19-25.91h-28.06v51.83h28.06C314.14,111.65,325.2,102.24,325.2,85.74z"/>
		<path d="M404.93,72.7v15.35c-1.32-0.16-2.48-0.16-3.63-0.16c-17,0-27.56,10.4-27.56,29.55V161h-15.85V73.52h15.19v14.69
			C378.68,77.98,389.58,72.7,404.93,72.7z"/>
		<path d="M498.02,122.55h-70.97c1.98,15.35,14.36,25.58,31.69,25.58c10.23,0,18.82-3.47,25.25-10.56l8.75,10.23
			c-7.92,9.24-19.97,14.2-34.5,14.2c-28.22,0-47.04-18.65-47.04-44.73c0-25.91,18.65-44.56,43.91-44.56s43.24,18.16,43.24,45.06
			C498.35,119.08,498.19,121.06,498.02,122.55z M427.05,111.16h56.12c-1.65-14.69-12.71-25.09-28.06-25.09
			C439.92,86.07,428.7,96.3,427.05,111.16z"/>
		<path d="M505.94,151.76l6.6-12.54c7.43,5.28,19.31,9.08,30.7,9.08c14.69,0,20.8-4.46,20.8-11.88c0-19.64-55.29-2.64-55.29-37.47
			c0-15.68,14.03-26.24,36.48-26.24c11.39,0,24.26,2.97,31.86,7.92l-6.77,12.54c-7.92-5.12-16.67-6.93-25.25-6.93
			c-13.87,0-20.63,5.12-20.63,12.05c0,20.63,55.46,3.8,55.46,37.8c0,15.85-14.52,25.91-37.8,25.91
			C527.57,161.99,513.21,157.54,505.94,151.76z"/>
		<path d="M645.58,155.89c-4.79,4.13-12.05,6.11-19.15,6.11c-17.66,0-27.73-9.74-27.73-27.4V86.56h-14.86V73.52h14.86V54.38h15.84
			v19.15h25.09v13.04h-25.09v47.37c0,9.41,4.95,14.69,13.7,14.69c4.62,0,9.08-1.48,12.38-4.13L645.58,155.89z"/>
		<path d="M649.38,117.26c0-26.08,19.31-44.56,45.56-44.56c26.24,0,45.39,18.49,45.39,44.56c0,26.08-19.15,44.73-45.39,44.73
			C668.69,161.99,649.38,143.34,649.38,117.26z M724.32,117.26c0-18.65-12.54-30.7-29.38-30.7c-16.84,0-29.54,12.05-29.54,30.7
			c0,18.65,12.71,30.87,29.54,30.87C711.77,148.13,724.32,135.92,724.32,117.26z"/>
		<path d="M796.95,109.67l-21.13,21.46V161h-16.51V45.47h16.51V110l62.72-64.54h18.82l-49.35,51.99L860.5,161h-19.31L796.95,109.67z
			"/>
		<rect x="870.73" y="73.52" width="15.85" height="87.48"/>
		<path d="M962.66,155.89c-4.79,4.13-12.05,6.11-19.15,6.11c-17.66,0-27.73-9.74-27.73-27.4V86.56h-14.86V73.52h14.86V54.38h15.84
			v19.15h25.09v13.04h-25.09v47.37c0,9.41,4.95,14.69,13.7,14.69c4.62,0,9.08-1.48,12.38-4.13L962.66,155.89z"/>
		<rect x="870.73" y="42.38" width="15.85" height="15.85"/>
	</g>
</g>
</svg>
